<?xml version="1.0" encoding="iso-8859-1"?>
<!-- Generator: Adobe Illustrator 19.0.0, SVG Export Plug-In . SVG Version: 6.00 Build 0)  -->
<svg version="1.1" id="Layer_1" xmlns="http://www.w3.org/2000/svg" xmlns:xlink="http://www.w3.org/1999/xlink" x="0px" y="0px"
	 viewBox="0 0 295.939 33.195" style="enable-background:new 0 0 295.939 33.195;" xml:space="preserve">
<g>
	<path style="fill:#FFFFFF;" d="M0,33.195V0.5l16.166,19.572L32.332,0.5v32.695h-5.585V15.258L16.166,28.154L5.585,15.258v17.938H0z
		"/>
	<path style="fill:#FFFFFF;" d="M58.17,33.195V1.545h5.676v31.65H58.17z"/>
	<path style="fill:#FFFFFF;" d="M89.685,33.195V1.545h5.676v15.166l13.396-15.166h6.721l-12.306,13.94l12.669,17.71h-6.63
		l-9.854-13.668l-3.996,4.404v9.264H89.685z"/>
	<polygon style="fill:#FFFFFF;" points="149.991,0 134.324,33.195 140.318,33.195 149.945,11.853 159.572,33.195 165.612,33.195 	
		"/>
	<path style="fill:#FFFFFF;" d="M188.635,33.195V1.545h20.162v5.131h-14.486v7.538h13.578v5.132h-13.578v8.719h14.804v5.131H188.635
		z"/>
	<path style="fill:#FFFFFF;" d="M233.5,33.195V1.545h5.676v26.52h12.579v5.131H233.5z"/>
	<path style="fill:#FFFFFF;" d="M276.958,23.841c1.635,3.224,4.269,4.813,7.947,4.813c3.951,0,5.358-2.089,5.358-4.133
		c0-1.407-0.5-2.361-1.816-3.224c-1.317-0.908-2.271-1.317-4.632-2.18c-2.906-1.09-4.586-1.907-6.403-3.36
		c-1.816-1.498-2.679-3.542-2.679-6.221c0-2.543,0.954-4.587,2.815-6.176C279.455,1.771,281.771,1,284.541,1
		c4.314,0,7.583,1.725,9.763,5.131l-4.042,2.77c-1.226-1.861-3.088-2.814-5.631-2.814c-2.498,0-4.314,1.407-4.314,3.359
		c0,1.317,0.545,1.953,1.317,2.725c0.5,0.363,1.771,0.908,2.361,1.227l1.635,0.636l1.862,0.727c2.997,1.226,5.131,2.543,6.448,3.95
		c1.317,1.408,1.998,3.315,1.998,5.677c0,5.585-3.86,9.354-11.08,9.354c-5.858,0-10.172-2.725-12.17-7.221L276.958,23.841z"/>
</g>
</svg>
